<svg width="14" height="18" viewBox="0 0 14 18" fill="none" xmlns="http://www.w3.org/2000/svg">
<path d="M7.00001 0.667C3.50001 0.667 0.333008 3.35 0.333008 7.5C0.333008 10.15 2.37501 13.267 6.45001 16.858C6.604 16.9909 6.80061 17.064 7.00401 17.064C7.2074 17.064 7.40402 16.9909 7.55801 16.858C11.625 13.267 13.667 10.15 13.667 7.5C13.667 3.35 10.5 0.667 7.00001 0.667ZM7.00001 9C6.08301 9 5.33301 8.25 5.33301 7.333C5.33301 6.416 6.08301 5.666 7.00001 5.666C7.91701 5.666 8.66701 6.416 8.66701 7.333C8.66701 8.25 7.91701 9 7.00001 9Z" fill="url(#paint0_linear_404_307)"/>
<defs>
<linearGradient id="paint0_linear_404_307" x1="7.00001" y1="0.667" x2="7.00001" y2="17.064" gradientUnits="userSpaceOnUse">
<stop stop-color="#FFBFCB"/>
<stop offset="0.2755" stop-color="#F09EAE"/>
<stop offset="0.551" stop-color="#D598A4"/>
</linearGradient>
</defs>
</svg>
