<svg width="19" height="19" viewBox="0 0 19 19" fill="none" xmlns="http://www.w3.org/2000/svg">
<path d="M9.5 19C8.18583 19 6.95083 18.7506 5.795 18.2519C4.63917 17.7531 3.63375 17.0763 2.77875 16.2213C1.92375 15.3663 1.24688 14.3608 0.748125 13.205C0.249375 12.0492 0 10.8142 0 9.5C0 8.18583 0.249375 6.95083 0.748125 5.795C1.24688 4.63917 1.92375 3.63375 2.77875 2.77875C3.63375 1.92375 4.63917 1.24688 5.795 0.748125C6.95083 0.249375 8.18583 0 9.5 0C10.8142 0 12.0492 0.249375 13.205 0.748125C14.3608 1.24688 15.3663 1.92375 16.2213 2.77875C17.0763 3.63375 17.7531 4.63917 18.2519 5.795C18.7506 6.95083 19 8.18583 19 9.5C19 10.8142 18.7506 12.0492 18.2519 13.205C17.7531 14.3608 17.0763 15.3663 16.2213 16.2213C15.3663 17.0763 14.3608 17.7531 13.205 18.2519C12.0492 18.7506 10.8142 19 9.5 19ZM8.55 17.0525V15.2C8.0275 15.2 7.58021 15.014 7.20813 14.6419C6.83604 14.2698 6.65 13.8225 6.65 13.3V12.35L2.09 7.79C2.0425 8.075 1.99896 8.36 1.95938 8.645C1.91979 8.93 1.9 9.215 1.9 9.5C1.9 11.4158 2.52938 13.0942 3.78813 14.535C5.04688 15.9758 6.63417 16.815 8.55 17.0525ZM15.105 14.63C15.4217 14.2817 15.7067 13.9056 15.96 13.5019C16.2133 13.0981 16.4231 12.6785 16.5894 12.2431C16.7556 11.8077 16.8823 11.3604 16.9694 10.9012C17.0565 10.4421 17.1 9.975 17.1 9.5C17.1 7.94833 16.6685 6.53125 15.8056 5.24875C14.9427 3.96625 13.7908 3.04 12.35 2.47V2.85C12.35 3.3725 12.164 3.81979 11.7919 4.19187C11.4198 4.56396 10.9725 4.75 10.45 4.75H8.55V6.65C8.55 6.91917 8.45896 7.14479 8.27687 7.32687C8.09479 7.50896 7.86917 7.6 7.6 7.6H5.7V9.5H11.4C11.6692 9.5 11.8948 9.59104 12.0769 9.77312C12.259 9.95521 12.35 10.1808 12.35 10.45V13.3H13.3C13.7117 13.3 14.0838 13.4227 14.4163 13.6681C14.7488 13.9135 14.9783 14.2342 15.105 14.63Z" fill="url(#paint0_linear_707_255)"/>
<defs>
<linearGradient id="paint0_linear_707_255" x1="9.5" y1="0" x2="9.5" y2="19" gradientUnits="userSpaceOnUse">
<stop stop-color="#FFBFCB"/>
<stop offset="0.2755" stop-color="#F09EAE"/>
<stop offset="0.551" stop-color="#D598A4"/>
</linearGradient>
</defs>
</svg>
