<svg width="29" height="29" viewBox="0 0 29 29" fill="none" xmlns="http://www.w3.org/2000/svg">
<path d="M14.5 0C10.5608 0 10.0691 0.018125 8.52238 0.087C6.97813 0.1595 5.92688 0.402375 5.0025 0.76125C4.04912 1.131 3.23954 1.62762 2.43358 2.43358C1.62762 3.23954 1.12979 4.04792 0.76125 5.0025C0.402375 5.92688 0.158292 6.97813 0.087 8.52238C0.0145 10.0691 0 10.5608 0 14.5C0 18.4392 0.018125 18.9309 0.087 20.4776C0.1595 22.0207 0.402375 23.0731 0.76125 23.9975C1.131 24.9497 1.62762 25.7604 2.43358 26.5664C3.23954 27.3712 4.04792 27.8702 5.0025 28.2388C5.92808 28.5964 6.97933 28.8417 8.52238 28.913C10.0691 28.9855 10.5608 29 14.5 29C18.4392 29 18.9309 28.9819 20.4776 28.913C22.0207 28.8405 23.0731 28.5964 23.9975 28.2388C24.9497 27.869 25.7604 27.3712 26.5664 26.5664C27.3712 25.7604 27.8702 24.9533 28.2388 23.9975C28.5964 23.0731 28.8417 22.0207 28.913 20.4776C28.9855 18.9309 29 18.4392 29 14.5C29 10.5608 28.9819 10.0691 28.913 8.52238C28.8405 6.97933 28.5964 5.92567 28.2388 5.0025C27.869 4.04912 27.3712 3.23954 26.5664 2.43358C25.7604 1.62762 24.9533 1.12979 23.9975 0.76125C23.0731 0.402375 22.0207 0.158292 20.4776 0.087C18.9309 0.0145 18.4392 0 14.5 0ZM14.5 2.61C18.3703 2.61 18.8319 2.62933 20.3604 2.69579C21.7742 2.76225 22.5414 2.99667 23.0514 3.19725C23.7304 3.45946 24.2114 3.77363 24.7213 4.27992C25.2276 4.78742 25.5417 5.26954 25.8039 5.94863C26.0021 6.45854 26.2389 7.22583 26.303 8.63958C26.3719 10.1693 26.3876 10.6285 26.3876 14.5C26.3876 18.3715 26.3694 18.8319 26.2982 20.3604C26.2244 21.7742 25.9888 22.5414 25.7894 23.0514C25.5188 23.7304 25.2107 24.2114 24.7032 24.7213C24.1969 25.2276 23.7075 25.5417 23.0357 25.8039C22.5282 26.0021 21.7488 26.2389 20.3351 26.303C18.7956 26.3719 18.3425 26.3876 14.4637 26.3876C10.5838 26.3876 10.1307 26.3694 8.59245 26.2982C7.1775 26.2244 6.39813 25.9888 5.89062 25.7894C5.20308 25.5188 4.73063 25.2107 4.22433 24.7032C3.71563 24.1969 3.39058 23.7075 3.13683 23.0357C2.93746 22.5282 2.70304 21.7488 2.62933 20.3351C2.57496 18.8126 2.55562 18.3425 2.55562 14.4819C2.55562 10.6201 2.57496 10.1488 2.62933 8.60817C2.70304 7.19442 2.93746 6.41625 3.13683 5.90875C3.39058 5.22 3.71563 4.74875 4.22433 4.24004C4.73063 3.73375 5.20308 3.4075 5.89062 3.15496C6.39813 2.95438 7.16058 2.71875 8.57433 2.64625C10.1149 2.59188 10.5681 2.57375 14.4456 2.57375L14.5 2.61ZM14.5 7.05425C10.3856 7.05425 7.05425 10.3892 7.05425 14.5C7.05425 18.6144 10.3892 21.9457 14.5 21.9457C18.6144 21.9457 21.9457 18.6108 21.9457 14.5C21.9457 10.3856 18.6108 7.05425 14.5 7.05425ZM14.5 19.3333C11.8296 19.3333 9.6667 17.1704 9.6667 14.5C9.6667 11.8296 11.8296 9.6667 14.5 9.6667C17.1704 9.6667 19.3333 11.8296 19.3333 14.5C19.3333 17.1704 17.1704 19.3333 14.5 19.3333ZM23.9806 6.76062C23.9806 7.72125 23.2 8.50062 22.2406 8.50062C21.2799 8.50062 20.5006 7.72004 20.5006 6.76062C20.5006 5.80121 21.2812 5.02183 22.2406 5.02183C23.1988 5.02062 23.9806 5.80121 23.9806 6.76062Z" fill="white"/>
</svg>
