<svg width="25" height="25" viewBox="0 0 25 25" fill="none" xmlns="http://www.w3.org/2000/svg">
<path d="M9.37516 22.9167L7.96891 18.1771C7.13558 17.5174 6.46718 16.6927 5.9637 15.7031C5.46023 14.7135 5.2085 13.6458 5.2085 12.5C5.2085 11.3542 5.46023 10.2865 5.9637 9.29687C6.46718 8.30729 7.13558 7.48263 7.96891 6.82291L9.37516 2.08333H15.6252L17.0314 6.82291C17.8647 7.48263 18.5331 8.30729 19.0366 9.29687C19.5401 10.2865 19.7918 11.3542 19.7918 12.5C19.7918 13.6458 19.5401 14.7135 19.0366 15.7031C18.5331 16.6927 17.8647 17.5174 17.0314 18.1771L15.6252 22.9167H9.37516ZM12.5002 17.7083C13.9411 17.7083 15.1694 17.2005 16.1851 16.1849C17.2007 15.1693 17.7085 13.941 17.7085 12.5C17.7085 11.059 17.2007 9.83072 16.1851 8.8151C15.1694 7.79947 13.9411 7.29166 12.5002 7.29166C11.0592 7.29166 9.83089 7.79947 8.81527 8.8151C7.79964 9.83072 7.29183 11.059 7.29183 12.5C7.29183 13.941 7.79964 15.1693 8.81527 16.1849C9.83089 17.2005 11.0592 17.7083 12.5002 17.7083ZM10.521 5.46875C10.8682 5.38194 11.2024 5.3125 11.5236 5.26041C11.8448 5.20833 12.1703 5.18229 12.5002 5.18229C12.83 5.18229 13.1555 5.20833 13.4767 5.26041C13.7979 5.3125 14.1321 5.38194 14.4793 5.46875L14.0627 4.16666H10.9377L10.521 5.46875ZM10.9377 20.8333H14.0627L14.4793 19.5312C14.1321 19.6181 13.7979 19.6832 13.4767 19.7266C13.1555 19.77 12.83 19.7917 12.5002 19.7917C12.1703 19.7917 11.8448 19.77 11.5236 19.7266C11.2024 19.6832 10.8682 19.6181 10.521 19.5312L10.9377 20.8333Z" fill="url(#paint0_linear_673_523)"/>
<defs>
<linearGradient id="paint0_linear_673_523" x1="12.5002" y1="2.08333" x2="12.5002" y2="22.9167" gradientUnits="userSpaceOnUse">
<stop stop-color="#FFBFCB"/>
<stop offset="0.2755" stop-color="#F09EAE"/>
<stop offset="0.551" stop-color="#D598A4"/>
</linearGradient>
</defs>
</svg>
