<svg width="168" height="30" viewBox="0 0 168 30" fill="none" xmlns="http://www.w3.org/2000/svg">
<path d="M0.764 1.972L6.236 2.08H11.78C14.06 2.08 15.896 2.584 17.288 3.592C18.704 4.6 19.412 6.076 19.412 8.02C19.412 9.58 18.884 10.9 17.828 11.98C16.772 13.06 15.68 13.744 14.552 14.032C16.52 14.392 18.044 15.16 19.124 16.336C20.228 17.512 20.78 19.048 20.78 20.944C20.78 23.152 19.808 24.88 17.864 26.128C15.944 27.376 13.544 28 10.664 28C5.408 28 2 28.096 0.44 28.288C0.32 28.144 0.26 27.94 0.26 27.676L0.296 27.388C1.544 27.1 2.36 26.656 2.744 26.056C3.056 25.576 3.26 24.976 3.356 24.256C3.644 22.072 3.788 19.096 3.788 15.328C3.788 7.432 3.572 3.412 3.14 3.268C2.684 3.148 1.892 3.088 0.764 3.088C0.716 2.92 0.692 2.728 0.692 2.512C0.692 2.296 0.716 2.116 0.764 1.972ZM6.884 14.608V21.808C6.884 24.064 6.956 25.648 7.1 26.56C7.964 26.656 8.972 26.704 10.124 26.704C12.596 26.704 14.432 26.284 15.632 25.444C16.856 24.604 17.468 23.248 17.468 21.376C17.468 19.48 16.868 17.908 15.668 16.66C14.468 15.412 12.908 14.788 10.988 14.788H9.476C9.332 14.62 9.26 14.416 9.26 14.176L9.476 13.456H10.52C14.36 13.456 16.28 11.788 16.28 8.452C16.28 6.796 15.776 5.536 14.768 4.672C13.76 3.784 12.428 3.34 10.772 3.34C9.14 3.34 7.988 3.388 7.316 3.484C7.028 4.636 6.884 8.344 6.884 14.608ZM23.6479 2.692C23.6239 2.572 23.6119 2.452 23.6119 2.332C23.6119 2.188 23.6719 2.008 23.7919 1.792C25.3279 1.984 27.1039 2.08 29.1199 2.08C31.1359 2.08 32.8999 2.044 34.4119 1.972C34.4599 2.116 34.4839 2.296 34.4839 2.512L34.4119 3.088C33.0199 3.088 32.0359 3.1 31.4599 3.124C31.4599 4.036 31.7479 5.512 32.3239 7.552C32.9239 9.568 33.6199 11.536 34.4119 13.456L38.8039 24.112L43.6279 13.456C44.5879 11.32 45.4159 9.244 46.1119 7.228C46.8079 5.188 47.1559 3.856 47.1559 3.232C46.7239 3.136 45.8119 3.088 44.4199 3.088C44.3719 2.92 44.3479 2.728 44.3479 2.512C44.3479 2.296 44.3719 2.116 44.4199 1.972C46.0039 2.044 47.4199 2.08 48.6679 2.08C49.9159 2.08 51.1399 1.984 52.3399 1.792C52.4839 1.936 52.5559 2.14 52.5559 2.404L52.4839 2.692C51.5479 2.98 50.8039 3.4 50.2519 3.952C49.4599 4.744 48.5359 6.256 47.4799 8.488C46.9519 9.616 46.4719 10.672 46.0399 11.656C45.6079 12.616 45.3319 13.216 45.2119 13.456L37.9399 29.404H37.3279L29.5519 10.72C28.0879 7.072 26.9359 4.768 26.0959 3.808C25.7359 3.4 24.9199 3.028 23.6479 2.692ZM68.5973 28.144L62.4413 28H60.0653C57.3533 28 55.3493 28.096 54.0533 28.288C53.9333 28.144 53.8733 27.94 53.8733 27.676L53.9093 27.388C55.1573 27.1 55.9733 26.656 56.3573 26.056C56.6693 25.576 56.9093 24.664 57.0773 23.32C57.2693 21.952 57.3653 19.324 57.3653 15.436V8.164C57.3653 4.876 57.2093 3.22 56.8973 3.196C56.4413 3.124 55.7213 3.088 54.7373 3.088C54.6653 2.92 54.6293 2.728 54.6293 2.512C54.6293 2.296 54.6653 2.116 54.7373 1.972L58.1933 2.08C60.4013 2.08 62.1053 1.984 63.3053 1.792C63.4493 1.984 63.5213 2.176 63.5213 2.368L63.4493 2.692C62.4653 2.956 61.8173 3.292 61.5053 3.7C61.1933 4.084 61.0013 4.648 60.9293 5.392C60.6413 8.344 60.4973 11.548 60.4973 15.004V21.808C60.4973 24.064 60.5693 25.648 60.7133 26.56C61.5773 26.656 62.5853 26.704 63.7373 26.704C66.2093 26.704 68.6573 26.38 71.0813 25.732C71.4653 25.18 71.8133 24.448 72.1253 23.536C72.4613 22.6 72.6653 22.036 72.7373 21.844C72.8573 21.82 73.0373 21.808 73.2773 21.808C73.5173 21.808 73.7813 21.916 74.0693 22.132C73.9733 22.636 73.8173 23.692 73.6013 25.3C73.3853 26.908 73.2533 27.736 73.2053 27.784C72.8933 28.024 71.3573 28.144 68.5973 28.144ZM91.8786 17.488L97.6386 17.596C98.7666 17.596 99.8706 17.5 100.951 17.308C101.047 17.548 101.095 17.752 101.095 17.92L101.023 18.352C100.111 18.736 99.6066 19.516 99.5106 20.692C99.3426 22.324 99.2586 24.628 99.2586 27.604C97.8186 27.604 96.1506 27.784 94.2546 28.144C92.3586 28.528 90.8466 28.72 89.7186 28.72C85.5906 28.72 82.3266 27.436 79.9266 24.868C77.5506 22.276 76.3626 19.024 76.3626 15.112C76.3626 11.176 77.6586 7.924 80.2506 5.356C82.8426 2.788 86.1546 1.504 90.1866 1.504C93.4506 1.504 96.3426 1.852 98.8626 2.548C99.0306 2.596 99.1146 2.68 99.1146 2.8C99.1146 2.92 99.1026 3.076 99.0786 3.268C99.0786 3.46 99.0546 3.736 99.0066 4.096C98.9826 4.432 98.9586 4.816 98.9346 5.248C98.8866 6.16 98.8626 7.36 98.8626 8.848C98.6946 8.944 98.4666 8.992 98.1786 8.992C97.8906 8.992 97.6626 8.956 97.4946 8.884C97.0626 6.94 96.7506 5.728 96.5586 5.248C94.6626 3.616 92.3586 2.8 89.6466 2.8C86.9586 2.8 84.7146 3.76 82.9146 5.68C81.1386 7.6 80.2506 10.228 80.2506 13.564C80.2506 15.916 80.6346 18.124 81.4026 20.188C82.1946 22.252 83.3586 23.956 84.8946 25.3C86.4546 26.62 88.2546 27.28 90.2946 27.28C92.3586 27.28 94.3266 26.848 96.1986 25.984V23.788C96.1986 21.988 96.1266 20.356 95.9826 18.892C94.7586 18.748 93.3906 18.676 91.8786 18.676C91.7826 18.508 91.7346 18.316 91.7346 18.1L91.8786 17.488ZM130.448 28.108L126.236 28C124.412 28 122.816 28.096 121.448 28.288C121.304 28.096 121.232 27.892 121.232 27.676L121.304 27.388C122.24 27.172 122.888 26.932 123.248 26.668C123.632 26.38 123.824 26.068 123.824 25.732C123.824 25.396 123.656 24.724 123.32 23.716L121.196 18.316C119.9 18.244 118.352 18.208 116.552 18.208L111.404 18.316L110.504 20.62C109.304 23.596 108.704 25.708 108.704 26.956C109.256 26.98 110.096 26.992 111.224 26.992C111.272 27.16 111.296 27.352 111.296 27.568C111.296 27.784 111.272 27.964 111.224 28.108L107.408 28C105.896 28 104.576 28.096 103.448 28.288C103.304 28.12 103.232 27.916 103.232 27.676L103.304 27.388C104.528 27.052 105.416 26.524 105.968 25.804C106.544 25.084 107.396 23.452 108.524 20.908L117.416 0.747999H117.992L126.272 21.916C126.416 22.372 126.788 23.26 127.388 24.58C128.012 25.876 128.408 26.644 128.576 26.884C129.248 26.956 129.872 26.992 130.448 26.992C130.52 27.16 130.556 27.352 130.556 27.568C130.556 27.784 130.52 27.964 130.448 28.108ZM111.944 16.912L116.552 17.056C118.208 17.056 119.6 17.02 120.728 16.948L116.552 5.932L111.944 16.912ZM132.143 1.972L137.615 2.08H141.899C144.611 2.08 146.747 2.668 148.307 3.844C149.867 4.996 150.647 6.796 150.647 9.244C150.647 11.092 150.155 12.616 149.171 13.816C148.211 14.992 146.891 15.82 145.211 16.3C146.051 17.764 147.095 19.432 148.343 21.304C149.615 23.176 150.635 24.556 151.403 25.444C152.195 26.308 152.855 26.788 153.383 26.884C153.911 26.956 154.727 26.992 155.831 26.992C155.879 27.184 155.903 27.376 155.903 27.568C155.903 27.736 155.879 27.916 155.831 28.108C154.079 28.204 152.711 28.324 151.727 28.468C150.767 28.636 150.191 28.72 149.999 28.72C149.831 28.72 149.471 28.42 148.919 27.82C148.391 27.196 147.767 26.344 147.047 25.264C146.327 24.16 145.667 23.14 145.067 22.204C144.491 21.268 143.831 20.2 143.087 19C142.367 17.776 141.923 17.032 141.755 16.768C140.219 16.768 139.031 16.72 138.191 16.624V21.988C138.191 23.428 138.275 25.012 138.443 26.74C139.187 26.908 140.243 26.992 141.611 26.992C141.683 27.184 141.719 27.4 141.719 27.64C141.719 27.856 141.683 28.012 141.611 28.108L136.823 28C134.999 28 133.331 28.096 131.819 28.288C131.699 28.144 131.639 27.94 131.639 27.676L131.675 27.388C132.923 27.1 133.739 26.656 134.123 26.056C134.435 25.576 134.639 24.976 134.735 24.256C135.023 22.072 135.167 19.12 135.167 15.4C135.167 7.456 134.951 3.412 134.519 3.268C134.063 3.148 133.271 3.088 132.143 3.088C132.047 2.92 131.999 2.764 131.999 2.62C131.999 2.476 132.047 2.26 132.143 1.972ZM147.515 9.64C147.515 7.864 147.011 6.352 146.003 5.104C145.019 3.856 143.699 3.232 142.043 3.232C140.387 3.232 139.235 3.28 138.587 3.376C138.323 4.432 138.191 8.416 138.191 15.328C139.055 15.4 140.255 15.436 141.791 15.436C143.327 15.436 144.659 14.908 145.787 13.852C146.939 12.796 147.515 11.392 147.515 9.64ZM157.491 1.972L162.171 2.08L166.779 1.972C166.827 2.116 166.851 2.296 166.851 2.512L166.779 3.088C165.723 3.088 164.919 3.124 164.367 3.196C163.959 3.244 163.755 5.944 163.755 11.296V17.164C163.755 19.444 163.803 21.628 163.899 23.716C164.019 25.804 164.163 26.86 164.331 26.884C164.955 26.956 166.011 26.992 167.499 26.992C167.547 27.16 167.571 27.352 167.571 27.568C167.571 27.784 167.547 27.964 167.499 28.108L162.927 28C160.407 28 158.343 28.096 156.735 28.288C156.615 28.168 156.555 27.964 156.555 27.676L156.591 27.388C158.151 27.052 159.111 26.656 159.471 26.2C159.687 25.912 159.831 25.66 159.903 25.444C159.975 25.228 160.035 24.892 160.083 24.436C160.371 22.564 160.515 19.528 160.515 15.328V11.296C160.515 5.944 160.311 3.244 159.903 3.196C159.351 3.124 158.547 3.088 157.491 3.088C157.443 2.92 157.419 2.728 157.419 2.512C157.419 2.296 157.443 2.116 157.491 1.972Z" fill="white"/>
</svg>
